<svg width="215" height="215" viewBox="0 0 215 215" fill="none" xmlns="http://www.w3.org/2000/svg">
<circle cx="107.5" cy="107.5" r="107.5" fill="white" fill-opacity="0.08"/>
<circle cx="107.5" cy="107.5" r="107" stroke="white" stroke-opacity="0.08"/>
<circle cx="107.501" cy="107.5" r="89.0714" fill="white" fill-opacity="0.16"/>
<circle cx="107.501" cy="107.5" r="88.5714" stroke="white" stroke-opacity="0.16"/>
<circle cx="107.5" cy="107.5" r="68.5952" fill="white" fill-opacity="0.32"/>
<circle cx="107.5" cy="107.5" r="68.0952" stroke="white" stroke-opacity="0.32"/>
<mask id="mask0_6_188" style="mask-type:alpha" maskUnits="userSpaceOnUse" x="74" y="73" width="71" height="71">
<rect x="74.4961" y="73.5529" width="69.7807" height="69.7807" fill="#D9D9D9"/>
</mask>
<g mask="url(#mask0_6_188)">
<path d="M126.832 114.258V105.536H118.109V99.7205H126.832V90.9979H132.647V99.7205H141.369V105.536H132.647V114.258H126.832ZM100.664 108.443C97.4658 108.443 94.7278 107.304 92.4503 105.027C90.1727 102.749 89.0339 100.011 89.0339 96.813C89.0339 93.6147 90.1727 90.8768 92.4503 88.5992C94.7278 86.3216 97.4658 85.1829 100.664 85.1829C103.862 85.1829 106.6 86.3216 108.878 88.5992C111.155 90.8768 112.294 93.6147 112.294 96.813C112.294 100.011 111.155 102.749 108.878 105.027C106.6 107.304 103.862 108.443 100.664 108.443ZM77.4038 131.703V123.562C77.4038 121.915 77.8278 120.4 78.6759 119.019C79.5239 117.638 80.6505 116.584 82.0559 115.857C85.0603 114.355 88.1132 113.228 91.2146 112.477C94.3159 111.726 97.4658 111.351 100.664 111.351C103.862 111.351 107.012 111.726 110.114 112.477C113.215 113.228 116.268 114.355 119.272 115.857C120.678 116.584 121.804 117.638 122.652 119.019C123.5 120.4 123.924 121.915 123.924 123.562V131.703H77.4038Z" fill="white"/>
</g>
</svg>
