<svg width="215" height="215" viewBox="0 0 215 215" fill="none" xmlns="http://www.w3.org/2000/svg">
<circle cx="107.5" cy="107.5" r="107.5" fill="white" fill-opacity="0.08"/>
<circle cx="107.5" cy="107.5" r="107" stroke="white" stroke-opacity="0.08"/>
<circle cx="107.501" cy="107.5" r="89.0714" fill="white" fill-opacity="0.16"/>
<circle cx="107.501" cy="107.5" r="88.5714" stroke="white" stroke-opacity="0.16"/>
<circle cx="107.5" cy="107.5" r="68.5952" fill="white" fill-opacity="0.32"/>
<circle cx="107.5" cy="107.5" r="68.0952" stroke="white" stroke-opacity="0.32"/>
<mask id="mask0_6_189" style="mask-type:alpha" maskUnits="userSpaceOnUse" x="73" y="73" width="69" height="69">
<rect x="73.7745" y="73.7746" width="67.451" height="67.451" fill="#056C95"/>
</mask>
<g mask="url(#mask0_6_189)">
<path d="M121.552 121.552C122.723 121.552 123.719 121.142 124.538 120.323C125.358 119.503 125.768 118.508 125.768 117.337C125.768 116.165 125.358 115.17 124.538 114.35C123.719 113.531 122.723 113.121 121.552 113.121C120.381 113.121 119.386 113.531 118.566 114.35C117.746 115.17 117.337 116.165 117.337 117.337C117.337 118.508 117.746 119.503 118.566 120.323C119.386 121.142 120.381 121.552 121.552 121.552ZM121.552 129.984C123.004 129.984 124.339 129.644 125.557 128.965C126.775 128.286 127.759 127.384 128.508 126.26C127.478 125.651 126.377 125.182 125.206 124.854C124.035 124.527 122.817 124.363 121.552 124.363C120.288 124.363 119.07 124.527 117.899 124.854C116.728 125.182 115.627 125.651 114.596 126.26C115.346 127.384 116.33 128.286 117.547 128.965C118.765 129.644 120.1 129.984 121.552 129.984ZM121.552 135.604C117.665 135.604 114.351 134.234 111.61 131.494C108.87 128.754 107.5 125.44 107.5 121.552C107.5 117.664 108.87 114.35 111.61 111.61C114.351 108.87 117.665 107.5 121.552 107.5C125.44 107.5 128.754 108.87 131.494 111.61C134.234 114.35 135.605 117.664 135.605 121.552C135.605 125.44 134.234 128.754 131.494 131.494C128.754 134.234 125.44 135.604 121.552 135.604ZM107.5 135.604C100.989 133.965 95.6141 130.229 91.375 124.398C87.1359 118.566 85.0164 112.09 85.0164 104.97V87.8267L107.5 79.3953L129.984 87.8267V103.776C128.766 103.167 127.396 102.699 125.873 102.371C124.351 102.043 122.911 101.879 121.552 101.879C116.119 101.879 111.481 103.799 107.641 107.64C103.8 111.481 101.879 116.119 101.879 121.552C101.879 124.456 102.429 127.079 103.53 129.421C104.631 131.764 106.025 133.801 107.711 135.534C107.664 135.534 107.629 135.546 107.605 135.569C107.582 135.593 107.547 135.604 107.5 135.604Z" fill="white"/>
</g>
</svg>
