<svg width="32" height="32" viewBox="0 0 32 32" fill="none" xmlns="http://www.w3.org/2000/svg">
<rect width="32" height="32" rx="10" fill="url(#paint0_linear_1_524)"/>
<g clip-path="url(#clip0_1_524)">
<path fill-rule="evenodd" clip-rule="evenodd" d="M21.25 11.5C21.8467 11.5 22.419 11.7371 22.841 12.159C23.2629 12.581 23.5 13.1533 23.5 13.75V18.25C23.5 18.8467 23.2629 19.419 22.841 19.841C22.419 20.2629 21.8467 20.5 21.25 20.5H10.75C10.1533 20.5 9.58097 20.2629 9.15901 19.841C8.73705 19.419 8.5 18.8467 8.5 18.25V13.75C8.5 13.1533 8.73705 12.581 9.15901 12.159C9.58097 11.7371 10.1533 11.5 10.75 11.5H21.25ZM21.25 17.5H10.75C10.5663 17.5 10.389 17.5675 10.2517 17.6895C10.1144 17.8116 10.0267 17.9798 10.0052 18.1623L10 18.25V19H22V18.25C22 18.0663 21.9325 17.889 21.8105 17.7517C21.6884 17.6144 21.5202 17.5267 21.3378 17.5052L21.25 17.5ZM20.5 13.75C20.3011 13.75 20.1103 13.829 19.9697 13.9697C19.829 14.1103 19.75 14.3011 19.75 14.5C19.75 14.6989 19.829 14.8897 19.9697 15.0303C20.1103 15.171 20.3011 15.25 20.5 15.25C20.6989 15.25 20.8897 15.171 21.0303 15.0303C21.171 14.8897 21.25 14.6989 21.25 14.5C21.25 14.3011 21.171 14.1103 21.0303 13.9697C20.8897 13.829 20.6989 13.75 20.5 13.75Z" fill="white"/>
</g>
<defs>
<linearGradient id="paint0_linear_1_524" x1="4.5" y1="2.5" x2="28" y2="32" gradientUnits="userSpaceOnUse">
<stop offset="0.163269" stop-color="#EB8227"/>
<stop offset="0.788664" stop-color="#FFB370"/>
</linearGradient>
<clipPath id="clip0_1_524">
<rect width="18" height="18" fill="white" transform="translate(7 7)"/>
</clipPath>
</defs>
</svg>
