<svg width="32" height="32" viewBox="0 0 32 32" fill="none" xmlns="http://www.w3.org/2000/svg">
<rect width="32" height="32" rx="10" fill="url(#paint0_linear_1_536)"/>
<g clip-path="url(#clip0_1_536)">
<g clip-path="url(#clip1_1_536)">
<path fill-rule="evenodd" clip-rule="evenodd" d="M12.94 11.4167C12.5875 11.4168 12.2413 11.5101 11.9364 11.6871C11.6316 11.8641 11.3789 12.1186 11.204 12.4247L9.87537 14.75H9.10004C9.02932 14.75 8.96149 14.7781 8.91148 14.8281C8.86147 14.8781 8.83337 14.9459 8.83337 15.0167V15.3333C8.83324 15.4524 8.87294 15.568 8.94616 15.6619C9.01937 15.7558 9.12188 15.8225 9.23737 15.8513L9.25337 15.8547C8.975 16.4325 8.86921 17.0783 8.94871 17.7147L9.43204 21.582C9.47235 21.9045 9.62908 22.2012 9.87277 22.4163C10.1165 22.6314 10.4303 22.7501 10.7554 22.75H10.8334C11.187 22.75 11.5261 22.6095 11.7762 22.3595C12.0262 22.1094 12.1667 21.7703 12.1667 21.4167H18.8334C18.8334 21.7703 18.9739 22.1094 19.2239 22.3595C19.4739 22.6095 19.8131 22.75 20.1667 22.75H20.2447C20.5697 22.7501 20.8836 22.6314 21.1273 22.4163C21.371 22.2012 21.5277 21.9045 21.568 21.582L22.0514 17.7153C22.1309 17.0789 22.0251 16.4331 21.7467 15.8553L21.7627 15.8513C21.8782 15.8225 21.9807 15.7558 22.0539 15.6619C22.1271 15.568 22.1668 15.4524 22.1667 15.3333V15.0167C22.1667 14.9459 22.1386 14.8781 22.0886 14.8281C22.0386 14.7781 21.9708 14.75 21.9 14.75H21.1247L19.796 12.4247C19.6212 12.1186 19.3685 11.8641 19.0637 11.6871C18.7588 11.5101 18.4126 11.4168 18.06 11.4167H12.9407H12.94ZM19.7814 15.086L18.6387 13.086C18.5804 12.9839 18.496 12.899 18.3943 12.84C18.2925 12.781 18.177 12.7499 18.0594 12.75H12.9407C12.8231 12.7499 12.7075 12.781 12.6058 12.84C12.504 12.899 12.4197 12.9839 12.3614 13.086L11.2187 15.086C11.1608 15.1874 11.1305 15.3022 11.1309 15.4189C11.1313 15.5357 11.1624 15.6503 11.221 15.7512C11.2795 15.8522 11.3636 15.936 11.4648 15.9943C11.5659 16.0526 11.6806 16.0833 11.7974 16.0833H19.2027C19.3195 16.0833 19.4341 16.0526 19.5353 15.9943C19.6365 15.936 19.7205 15.8522 19.7791 15.7512C19.8377 15.6503 19.8688 15.5357 19.8692 15.4189C19.8695 15.3022 19.8393 15.1874 19.7814 15.086ZM10.8334 18.776V18.3093C10.8333 18.2516 10.8483 18.1948 10.8768 18.1446C10.9053 18.0944 10.9464 18.0524 10.996 18.0228C11.0456 17.9933 11.102 17.9771 11.1598 17.9759C11.2175 17.9747 11.2746 17.9885 11.3254 18.016L13.1534 19.0027C13.402 19.1373 13.2987 19.5153 13.016 19.504L11.4734 19.442C11.3015 19.4351 11.1389 19.362 11.0196 19.238C10.9003 19.114 10.8336 18.9487 10.8334 18.7767V18.776ZM20.1667 18.3093V18.776C20.1668 18.9483 20.1003 19.1139 19.981 19.2382C19.8617 19.3625 19.6989 19.4358 19.5267 19.4427L17.984 19.504C17.7014 19.5153 17.5974 19.1373 17.8467 19.0027L19.6747 18.016C19.7255 17.9885 19.7826 17.9747 19.8403 17.9759C19.898 17.9771 19.9545 17.9933 20.0041 18.0228C20.0537 18.0524 20.0947 18.0944 20.1233 18.1446C20.1518 18.1948 20.1667 18.2516 20.1667 18.3093Z" fill="white"/>
</g>
</g>
<defs>
<linearGradient id="paint0_linear_1_536" x1="3" y1="3.5" x2="28" y2="30.5" gradientUnits="userSpaceOnUse">
<stop offset="0.114291" stop-color="#761EE4"/>
<stop offset="0.879616" stop-color="#9673FC"/>
</linearGradient>
<clipPath id="clip0_1_536">
<rect width="16" height="16" fill="white" transform="translate(8 8)"/>
</clipPath>
<clipPath id="clip1_1_536">
<rect width="16" height="16" fill="white" transform="translate(7.5 8.75)"/>
</clipPath>
</defs>
</svg>
