<svg width="49" height="48" viewBox="0 0 49 48" fill="none" xmlns="http://www.w3.org/2000/svg">
<rect x="0.5" width="48" height="48" rx="10" fill="#3261D9" fill-opacity="0.08"/>
<g clip-path="url(#clip0_16_192)">
<path fill-rule="evenodd" clip-rule="evenodd" d="M29.2779 15.363C29.3743 15.1271 29.5572 14.937 29.7891 14.8314C30.0209 14.7257 30.2844 14.7126 30.5256 14.7947C30.7669 14.8768 30.9677 15.0478 31.0871 15.2729C31.2064 15.4981 31.2353 15.7603 31.1679 16.006L31.1299 16.116L28.5199 22.536L29.1769 22.711C30.2269 22.992 31.1009 23.845 31.2669 25.009C31.4089 26.009 31.5419 27.529 31.3589 29.095C31.1769 30.647 30.6689 32.373 29.4119 33.641C28.9499 34.107 28.2869 34.181 27.8389 34.189C27.3279 34.197 26.7389 34.119 26.1339 33.999C24.9179 33.757 23.4589 33.309 22.0799 32.833L21.6659 32.688L20.8529 32.394L20.0729 32.103L19.3389 31.82L18.3609 31.432C17.8087 31.2111 17.2593 30.983 16.7129 30.748C16.554 30.6791 16.4157 30.5702 16.3115 30.4318C16.2074 30.2934 16.141 30.1303 16.1188 29.9585C16.0966 29.7867 16.1194 29.6121 16.185 29.4518C16.2506 29.2915 16.3567 29.151 16.4929 29.044C17.8709 27.964 19.1629 26.722 20.2549 25.575L20.7829 25.011C20.8689 24.919 20.9529 24.827 21.0339 24.737L21.5059 24.21L21.7259 23.958L22.3199 23.263L22.6569 22.857C23.0095 22.4237 23.4728 22.0939 23.9976 21.9026C24.5224 21.7112 25.0892 21.6654 25.6379 21.77L25.8369 21.816L26.5739 22.013L29.2779 15.363ZM25.3189 23.748C25.1162 23.6974 24.9033 23.7062 24.7054 23.7732C24.5076 23.8402 24.3332 23.9627 24.2029 24.126L23.9599 24.419L29.3579 25.865L29.3109 25.473C29.3029 25.4123 29.2946 25.3516 29.2859 25.291C29.2499 25.038 29.0709 24.8 28.7759 24.681L28.6599 24.643L25.3189 23.748ZM17.5649 20.466L17.6289 20.606C17.9016 21.1701 18.3311 21.6437 18.8659 21.97L18.9659 22.028C18.9763 22.034 18.9849 22.0425 18.991 22.0529C18.997 22.0633 19.0001 22.075 19.0001 22.087C19.0001 22.099 18.997 22.1107 18.991 22.1211C18.9849 22.1315 18.9763 22.14 18.9659 22.146L18.8659 22.204C18.3312 22.531 17.902 23.0053 17.6299 23.57L17.5659 23.709C17.5604 23.7216 17.5513 23.7324 17.5397 23.7399C17.5282 23.7474 17.5147 23.7514 17.5009 23.7514C17.4871 23.7514 17.4737 23.7474 17.4621 23.7399C17.4506 23.7324 17.4415 23.7216 17.4359 23.709L17.3719 23.569C17.0992 23.0049 16.6698 22.5313 16.1349 22.205L16.0349 22.147C16.0245 22.141 16.0159 22.1325 16.0099 22.1221C16.0039 22.1117 16.0007 22.1 16.0007 22.088C16.0007 22.076 16.0039 22.0643 16.0099 22.0539C16.0159 22.0435 16.0245 22.035 16.0349 22.029L16.1349 21.971C16.6693 21.6438 17.0981 21.1696 17.3699 20.605L17.4339 20.466C17.4395 20.4534 17.4486 20.4426 17.4601 20.4351C17.4717 20.4276 17.4851 20.4236 17.4989 20.4236C17.5127 20.4236 17.5262 20.4276 17.5377 20.4351C17.5493 20.4426 17.5594 20.4534 17.5649 20.466ZM20.3969 15.607C20.4369 15.517 20.5629 15.517 20.6029 15.607L20.7049 15.829C21.1393 16.727 21.8232 17.4807 22.6749 18L22.8319 18.093C22.8488 18.1023 22.8629 18.116 22.8727 18.1326C22.8825 18.1493 22.8876 18.1682 22.8876 18.1875C22.8876 18.2068 22.8825 18.2257 22.8727 18.2423C22.8629 18.259 22.8488 18.2727 22.8319 18.282L22.6739 18.374C21.8221 18.8935 21.1381 19.6477 20.7039 20.546L20.6039 20.768C20.5951 20.7881 20.5806 20.8052 20.5622 20.8172C20.5439 20.8292 20.5224 20.8356 20.5004 20.8356C20.4785 20.8356 20.457 20.8292 20.4386 20.8172C20.4202 20.8052 20.4057 20.7881 20.3969 20.768L20.2949 20.546C19.8607 19.6477 19.1768 18.8935 18.3249 18.374L18.1669 18.282C18.15 18.2727 18.136 18.259 18.1262 18.2423C18.1164 18.2257 18.1112 18.2068 18.1112 18.1875C18.1112 18.1682 18.1164 18.1493 18.1262 18.1326C18.136 18.116 18.15 18.1023 18.1669 18.093L18.3259 18C19.1776 17.4807 19.8616 16.727 20.2959 15.829L20.3959 15.607H20.3969Z" fill="#3261D9"/>
</g>
<defs>
<clipPath id="clip0_16_192">
<rect width="24" height="24" fill="white" transform="translate(12 12.75)"/>
</clipPath>
</defs>
</svg>
