<svg width="49" height="48" viewBox="0 0 49 48" fill="none" xmlns="http://www.w3.org/2000/svg">
<rect x="0.5" width="48" height="48" rx="16" fill="#FF6E1E" fill-opacity="0.08"/>
<g clip-path="url(#clip0_16_199)">
<path fill-rule="evenodd" clip-rule="evenodd" d="M22.753 14.197C22.4792 14.1056 22.189 14.0746 21.9021 14.106C21.6152 14.1374 21.3385 14.2305 21.091 14.379L16.971 16.851C16.6748 17.0287 16.4298 17.28 16.2596 17.5806C16.0894 17.8811 16 18.2206 16 18.566V32H15C14.7348 32 14.4804 32.1054 14.2929 32.2929C14.1054 32.4804 14 32.7348 14 33C14 33.2652 14.1054 33.5196 14.2929 33.7071C14.4804 33.8946 14.7348 34 15 34H33C33.2652 34 33.5196 33.8946 33.7071 33.7071C33.8946 33.5196 34 33.2652 34 33C34 32.7348 33.8946 32.4804 33.7071 32.2929C33.5196 32.1054 33.2652 32 33 32H32V18.72C31.9998 18.3005 31.8676 17.8918 31.6223 17.5515C31.377 17.2113 31.0309 16.9568 30.633 16.824L22.753 14.197ZM21 16.767L18 18.567V32H21V16.766V16.767Z" fill="#FF6E1E"/>
</g>
<defs>
<clipPath id="clip0_16_199">
<rect width="24" height="24" fill="white" transform="translate(12 12)"/>
</clipPath>
</defs>
</svg>
