<svg width="49" height="48" viewBox="0 0 49 48" fill="none" xmlns="http://www.w3.org/2000/svg">
<rect x="0.5" width="48" height="48" rx="16" fill="#29D697" fill-opacity="0.08"/>
<g clip-path="url(#clip0_16_213)">
<path d="M24.707 15.043C24.5195 14.8555 24.2652 14.7502 24 14.7502C23.7349 14.7502 23.4805 14.8555 23.293 15.043L19.293 19.043C19.1414 19.1946 19.0425 19.391 19.011 19.6031C18.9795 19.8152 19.017 20.0318 19.118 20.221C19.365 20.684 19.751 20.996 20.128 21.208L17.293 24.043C17.1055 24.2305 17.0002 24.4848 17.0002 24.75C17.0002 25.0152 17.1055 25.2695 17.293 25.457C17.771 25.935 18.375 26.227 18.927 26.409L16.293 29.043C16.1723 29.1639 16.0845 29.3136 16.0381 29.4781C15.9917 29.6425 15.9882 29.816 16.0279 29.9822C16.0676 30.1483 16.1492 30.3016 16.2649 30.4272C16.3807 30.5529 16.5267 30.6468 16.689 30.7C17.379 30.927 18.092 31.088 18.804 31.23C19.584 31.387 20.55 31.542 21.649 31.642L21.051 33.434C21.0009 33.5843 20.9873 33.7444 21.0113 33.901C21.0352 34.0577 21.096 34.2064 21.1887 34.3349C21.2814 34.4634 21.4032 34.5681 21.5443 34.6403C21.6854 34.7124 21.8416 34.75 22 34.75H26C26.1585 34.75 26.3147 34.7124 26.4557 34.6403C26.5968 34.5681 26.7187 34.4634 26.8114 34.3349C26.904 34.2064 26.9649 34.0577 26.9888 33.901C27.0127 33.7444 26.9991 33.5843 26.949 33.434L26.351 31.642C27.451 31.542 28.417 31.387 29.196 31.231C29.908 31.088 30.626 30.927 31.316 30.699C31.4778 30.6451 31.6231 30.5508 31.7381 30.425C31.8531 30.2991 31.9341 30.146 31.9733 29.98C32.0125 29.8141 32.0086 29.6409 31.962 29.4769C31.9154 29.3129 31.8276 29.1635 31.707 29.043L29.073 26.409C29.625 26.228 30.229 25.935 30.707 25.457C30.8945 25.2695 30.9998 25.0152 30.9998 24.75C30.9998 24.4848 30.8945 24.2305 30.707 24.043L27.872 21.208C28.249 20.996 28.635 20.684 28.882 20.221C28.983 20.0318 29.0205 19.8152 28.989 19.6031C28.9575 19.391 28.8586 19.1946 28.707 19.043L24.707 15.043Z" fill="#29D697"/>
</g>
<defs>
<clipPath id="clip0_16_213">
<rect width="24" height="24" fill="white" transform="translate(12 12.75)"/>
</clipPath>
</defs>
</svg>
