<svg width="25" height="24" viewBox="0 0 25 24" fill="none" xmlns="http://www.w3.org/2000/svg">
<g clip-path="url(#clip0_1_589)">
<path d="M13.7 2.65C13.3538 2.39036 12.9327 2.25 12.5 2.25C12.0673 2.25 11.6462 2.39036 11.3 2.65L4.3 7.9C4.05161 8.08629 3.85 8.32786 3.71115 8.60557C3.57229 8.88328 3.5 9.18951 3.5 9.5V19C3.5 19.5304 3.71071 20.0391 4.08579 20.4142C4.46086 20.7893 4.96957 21 5.5 21H9.4C9.69174 21 9.97153 20.8841 10.1778 20.6778C10.3841 20.4715 10.5 20.1917 10.5 19.9V15C10.5 14.4696 10.7107 13.9609 11.0858 13.5858C11.4609 13.2107 11.9696 13 12.5 13C13.0304 13 13.5391 13.2107 13.9142 13.5858C14.2893 13.9609 14.5 14.4696 14.5 15V19.9C14.5 20.1917 14.6159 20.4715 14.8222 20.6778C15.0285 20.8841 15.3083 21 15.6 21H19.5C20.0304 21 20.5391 20.7893 20.9142 20.4142C21.2893 20.0391 21.5 19.5304 21.5 19V9.5C21.5 9.18951 21.4277 8.88328 21.2889 8.60557C21.15 8.32786 20.9484 8.08629 20.7 7.9L13.7 2.65Z" fill="#056C95"/>
</g>
<defs>
<clipPath id="clip0_1_589">
<rect width="24" height="24" fill="white" transform="translate(0.5)"/>
</clipPath>
</defs>
</svg>
