<svg width="25" height="24" viewBox="0 0 25 24" fill="none" xmlns="http://www.w3.org/2000/svg">
<g clip-path="url(#clip0_1_872)">
<path fill-rule="evenodd" clip-rule="evenodd" d="M11.3 2.65C11.6462 2.39036 12.0673 2.25 12.5 2.25C12.9327 2.25 13.3538 2.39036 13.7 2.65L20.7 7.9C20.9484 8.08629 21.15 8.32786 21.2889 8.60557C21.4277 8.88328 21.5 9.18951 21.5 9.5V19C21.5 19.5304 21.2893 20.0391 20.9142 20.4142C20.5391 20.7893 20.0304 21 19.5 21H14.6C14.3083 21 14.0285 20.8841 13.8222 20.6778C13.6159 20.4715 13.5 20.1917 13.5 19.9V14C13.5 13.7348 13.3946 13.4804 13.2071 13.2929C13.0196 13.1054 12.7652 13 12.5 13C12.2348 13 11.9804 13.1054 11.7929 13.2929C11.6054 13.4804 11.5 13.7348 11.5 14V19.9C11.5 20.0445 11.4715 20.1875 11.4163 20.321C11.361 20.4544 11.28 20.5757 11.1778 20.6778C11.0757 20.78 10.9544 20.861 10.821 20.9163C10.6875 20.9715 10.5445 21 10.4 21H5.5C4.96957 21 4.46086 20.7893 4.08579 20.4142C3.71071 20.0391 3.5 19.5304 3.5 19V9.5C3.5 9.18951 3.57229 8.88328 3.71115 8.60557C3.85 8.32786 4.05161 8.08629 4.3 7.9L11.3 2.65ZM12.5 4.25L5.5 9.5V19H9.5V14C9.5 13.2044 9.81607 12.4413 10.3787 11.8787C10.9413 11.3161 11.7044 11 12.5 11C13.2956 11 14.0587 11.3161 14.6213 11.8787C15.1839 12.4413 15.5 13.2044 15.5 14V19H19.5V9.5L12.5 4.25Z" fill="#727171"/>
</g>
<defs>
<clipPath id="clip0_1_872">
<rect width="24" height="24" fill="white" transform="translate(0.5)"/>
</clipPath>
</defs>
</svg>
