<svg width="32" height="32" viewBox="0 0 32 32" fill="none" xmlns="http://www.w3.org/2000/svg">
<rect width="32" height="32" rx="10" fill="url(#paint0_linear_1_499)"/>
<g clip-path="url(#clip0_1_499)">
<path d="M22 20.9167C22.17 20.9169 22.3334 20.9819 22.4569 21.0986C22.5805 21.2152 22.6549 21.3746 22.6648 21.5443C22.6748 21.7139 22.6196 21.8809 22.5105 22.0112C22.4015 22.1415 22.2468 22.2253 22.078 22.2453L22 22.25H10C9.83011 22.2498 9.66668 22.1848 9.54312 22.0681C9.41956 21.9515 9.34521 21.792 9.33525 21.6224C9.3253 21.4528 9.38048 21.2858 9.48954 21.1554C9.5986 21.0251 9.7533 20.9414 9.92203 20.9213L10 20.9167H22ZM20.6667 10.9167C21.0031 10.9166 21.3271 11.0436 21.5737 11.2723C21.8204 11.5011 21.9715 11.8146 21.9967 12.15L22 12.25V18.9167C22.0001 19.2531 21.8731 19.577 21.6444 19.8237C21.4156 20.0704 21.1021 20.2214 20.7667 20.2467L20.6667 20.25H11.3334C10.997 20.2501 10.673 20.1231 10.4263 19.8943C10.1797 19.6656 10.0286 19.3521 10.0034 19.0167L10 18.9167V12.25C9.99993 11.9136 10.127 11.5896 10.3557 11.343C10.5844 11.0963 10.8979 10.9452 11.2334 10.92L11.3334 10.9167H20.6667Z" fill="white"/>
</g>
<defs>
<linearGradient id="paint0_linear_1_499" x1="3.5" y1="3" x2="29.5" y2="28.5" gradientUnits="userSpaceOnUse">
<stop offset="0.218667" stop-color="#21B4BE"/>
<stop offset="1" stop-color="#88F7FF"/>
</linearGradient>
<clipPath id="clip0_1_499">
<rect width="16" height="16" fill="white" transform="translate(8 8.25)"/>
</clipPath>
</defs>
</svg>
