<svg width="49" height="48" viewBox="0 0 49 48" fill="none" xmlns="http://www.w3.org/2000/svg">
<rect x="0.5" width="48" height="48" rx="16" fill="#C232D9" fill-opacity="0.08"/>
<g clip-path="url(#clip0_16_206)">
<path d="M15 17.25C15 16.4544 15.3161 15.6913 15.8787 15.1287C16.4413 14.5661 17.2044 14.25 18 14.25H28C28.7956 14.25 29.5587 14.5661 30.1213 15.1287C30.6839 15.6913 31 16.4544 31 17.25H32C32.5304 17.25 33.0391 17.4607 33.4142 17.8358C33.7893 18.2109 34 18.7196 34 19.25V20.63C33.9999 21.87 33.5391 23.0657 32.707 23.9851C31.8749 24.9044 30.7309 25.4817 29.497 25.605L24 26.155V26.25C24.5304 26.25 25.0391 26.4607 25.4142 26.8358C25.7893 27.2109 26 27.7196 26 28.25V32.25C26 32.7804 25.7893 33.2891 25.4142 33.6642C25.0391 34.0393 24.5304 34.25 24 34.25H22C21.4696 34.25 20.9609 34.0393 20.5858 33.6642C20.2107 33.2891 20 32.7804 20 32.25V28.25C20 27.7196 20.2107 27.2109 20.5858 26.8358C20.9609 26.4607 21.4696 26.25 22 26.25V26.155C22 25.659 22.1843 25.1808 22.5171 24.813C22.8499 24.4453 23.3075 24.2143 23.801 24.165L29.299 23.615C30.0392 23.5409 30.7254 23.1944 31.2245 22.6428C31.7236 22.0912 32 21.3739 32 20.63V19.25H31C31 20.0456 30.6839 20.8087 30.1213 21.3713C29.5587 21.9339 28.7956 22.25 28 22.25H18C17.2044 22.25 16.4413 21.9339 15.8787 21.3713C15.3161 20.8087 15 20.0456 15 19.25V17.25Z" fill="#C232D9"/>
</g>
<defs>
<clipPath id="clip0_16_206">
<rect width="24" height="24" fill="white" transform="translate(12 12.25)"/>
</clipPath>
</defs>
</svg>
