<svg width="32" height="32" viewBox="0 0 32 32" fill="none" xmlns="http://www.w3.org/2000/svg">
<rect width="32" height="32" rx="10" fill="url(#paint0_linear_1_552)"/>
<g clip-path="url(#clip0_1_552)">
<path d="M10 11.5833C10 11.0529 10.2107 10.5442 10.5858 10.1691C10.9609 9.79406 11.4696 9.58334 12 9.58334H18.6667C19.1971 9.58334 19.7058 9.79406 20.0809 10.1691C20.456 10.5442 20.6667 11.0529 20.6667 11.5833H21.3333C21.687 11.5833 22.0261 11.7238 22.2761 11.9739C22.5262 12.2239 22.6667 12.5631 22.6667 12.9167V13.8367C22.6666 14.6633 22.3594 15.4605 21.8047 16.0734C21.2499 16.6863 20.4872 17.0712 19.6647 17.1533L16 17.52V17.5833C16.3536 17.5833 16.6928 17.7238 16.9428 17.9739C17.1929 18.2239 17.3333 18.5631 17.3333 18.9167V21.5833C17.3333 21.937 17.1929 22.2761 16.9428 22.5262C16.6928 22.7762 16.3536 22.9167 16 22.9167H14.6667C14.313 22.9167 13.9739 22.7762 13.7239 22.5262C13.4738 22.2761 13.3333 21.937 13.3333 21.5833V18.9167C13.3333 18.5631 13.4738 18.2239 13.7239 17.9739C13.9739 17.7238 14.313 17.5833 14.6667 17.5833V17.52C14.6667 17.1894 14.7895 16.8705 15.0114 16.6254C15.2333 16.3802 15.5383 16.2262 15.8673 16.1933L19.5327 15.8267C20.0261 15.7773 20.4836 15.5463 20.8163 15.1785C21.1491 14.8108 21.3333 14.3326 21.3333 13.8367V12.9167H20.6667C20.6667 13.4471 20.456 13.9558 20.0809 14.3309C19.7058 14.706 19.1971 14.9167 18.6667 14.9167H12C11.4696 14.9167 10.9609 14.706 10.5858 14.3309C10.2107 13.9558 10 13.4471 10 12.9167V11.5833Z" fill="white"/>
</g>
<defs>
<linearGradient id="paint0_linear_1_552" x1="4" y1="3.5" x2="28" y2="32" gradientUnits="userSpaceOnUse">
<stop offset="0.200432" stop-color="#3F79D1"/>
<stop offset="0.720421" stop-color="#69A5FF"/>
</linearGradient>
<clipPath id="clip0_1_552">
<rect width="16" height="16" fill="white" transform="translate(8 8.25)"/>
</clipPath>
</defs>
</svg>
