<svg width="25" height="24" viewBox="0 0 25 24" fill="none" xmlns="http://www.w3.org/2000/svg">
<g clip-path="url(#clip0_1_884)">
<path fill-rule="evenodd" clip-rule="evenodd" d="M12.5 2C6.977 2 2.5 6.477 2.5 12C2.5 17.523 6.977 22 12.5 22C18.023 22 22.5 17.523 22.5 12C22.5 6.477 18.023 2 12.5 2ZM9 9.5C9 9.04037 9.09053 8.58525 9.26642 8.16061C9.44231 7.73597 9.70012 7.35013 10.0251 7.02513C10.3501 6.70012 10.736 6.44231 11.1606 6.26642C11.5852 6.09053 12.0404 6 12.5 6C12.9596 6 13.4148 6.09053 13.8394 6.26642C14.264 6.44231 14.6499 6.70012 14.9749 7.02513C15.2999 7.35013 15.5577 7.73597 15.7336 8.16061C15.9095 8.58525 16 9.04037 16 9.5C16 10.4283 15.6313 11.3185 14.9749 11.9749C14.3185 12.6313 13.4283 13 12.5 13C11.5717 13 10.6815 12.6313 10.0251 11.9749C9.36875 11.3185 9 10.4283 9 9.5ZM18.758 16.984C18.0094 17.9256 17.0578 18.686 15.9742 19.2082C14.8905 19.7305 13.7029 20.0011 12.5 20C11.2971 20.0011 10.1095 19.7305 9.02583 19.2082C7.9422 18.686 6.99056 17.9256 6.242 16.984C7.863 15.821 10.075 15 12.5 15C14.925 15 17.137 15.821 18.758 16.984Z" fill="#056C95"/>
</g>
<defs>
<clipPath id="clip0_1_884">
<rect width="24" height="24" fill="white" transform="translate(0.5)"/>
</clipPath>
</defs>
</svg>
