<svg width="25" height="24" viewBox="0 0 25 24" fill="none" xmlns="http://www.w3.org/2000/svg">
<g clip-path="url(#clip0_1_793)">
<path fill-rule="evenodd" clip-rule="evenodd" d="M12.5 2C18.023 2 22.5 6.477 22.5 12C22.5035 14.3079 21.7054 16.5454 20.242 18.33L20.262 18.352L20.13 18.464C19.1922 19.5732 18.0236 20.4643 16.7057 21.0751C15.3879 21.6858 13.9525 22.0015 12.5 22C9.55001 22 6.90001 20.723 5.07001 18.693L4.87001 18.463L4.73801 18.353L4.75801 18.329C3.29477 16.5447 2.49663 14.3076 2.50001 12C2.50001 6.477 6.97701 2 12.5 2ZM12.5 17C10.64 17 8.95901 17.592 7.70701 18.406C9.08943 19.4433 10.7717 20.0027 12.5 20C14.2283 20.0027 15.9106 19.4433 17.293 18.406C15.8624 17.4893 14.1992 17.0014 12.5 17ZM12.5 4C10.9945 3.99996 9.5196 4.42471 8.24473 5.22545C6.96987 6.02619 5.94682 7.1704 5.29317 8.52657C4.63953 9.88274 4.38181 11.3958 4.54966 12.8919C4.71751 14.388 5.3041 15.8064 6.24201 16.984C7.86301 15.821 10.075 15 12.5 15C14.925 15 17.137 15.821 18.758 16.984C19.6959 15.8064 20.2825 14.388 20.4504 12.8919C20.6182 11.3958 20.3605 9.88274 19.7069 8.52657C19.0532 7.1704 18.0302 6.02619 16.7553 5.22545C15.4804 4.42471 14.0055 3.99996 12.5 4ZM12.5 6C13.5609 6 14.5783 6.42143 15.3284 7.17157C16.0786 7.92172 16.5 8.93913 16.5 10C16.5 11.0609 16.0786 12.0783 15.3284 12.8284C14.5783 13.5786 13.5609 14 12.5 14C11.4391 14 10.4217 13.5786 9.67158 12.8284C8.92144 12.0783 8.50001 11.0609 8.50001 10C8.50001 8.93913 8.92144 7.92172 9.67158 7.17157C10.4217 6.42143 11.4391 6 12.5 6ZM12.5 8C11.9696 8 11.4609 8.21071 11.0858 8.58579C10.7107 8.96086 10.5 9.46957 10.5 10C10.5 10.5304 10.7107 11.0391 11.0858 11.4142C11.4609 11.7893 11.9696 12 12.5 12C13.0304 12 13.5392 11.7893 13.9142 11.4142C14.2893 11.0391 14.5 10.5304 14.5 10C14.5 9.46957 14.2893 8.96086 13.9142 8.58579C13.5392 8.21071 13.0304 8 12.5 8Z" fill="#727171"/>
</g>
<defs>
<clipPath id="clip0_1_793">
<rect width="24" height="24" fill="white" transform="translate(0.5)"/>
</clipPath>
</defs>
</svg>
