<svg width="49" height="48" viewBox="0 0 49 48" fill="none" xmlns="http://www.w3.org/2000/svg">
<rect x="0.5" width="48" height="48" rx="16" fill="#FEFAEC"/>
<g clip-path="url(#clip0_16_220)">
<path d="M23.7501 14.817C24.1301 14.5976 24.5612 14.4821 25.0001 14.4821C25.4389 14.4821 25.87 14.5976 26.2501 14.817L32.5441 18.45C32.9241 18.6694 33.2397 18.985 33.4591 19.365C33.6785 19.7451 33.794 20.1762 33.7941 20.615V27.883C33.794 28.3218 33.6785 28.7529 33.4591 29.133C33.2397 29.513 32.9241 29.8286 32.5441 30.048L26.2501 33.682C25.87 33.9014 25.4389 34.0169 25.0001 34.0169C24.5612 34.0169 24.1301 33.9014 23.7501 33.682L17.4561 30.048C17.076 29.8286 16.7604 29.513 16.541 29.133C16.3216 28.7529 16.2061 28.3218 16.2061 27.883V20.616C16.2059 20.177 16.3213 19.7457 16.5408 19.3655C16.7602 18.9852 17.0759 18.6695 17.4561 18.45L23.7501 14.817ZM25.0001 21.25C24.2044 21.25 23.4413 21.5661 22.8787 22.1287C22.3161 22.6913 22.0001 23.4544 22.0001 24.25C22.0001 25.0456 22.3161 25.8087 22.8787 26.3713C23.4413 26.9339 24.2044 27.25 25.0001 27.25C25.7957 27.25 26.5588 26.9339 27.1214 26.3713C27.684 25.8087 28.0001 25.0456 28.0001 24.25C28.0001 23.4544 27.684 22.6913 27.1214 22.1287C26.5588 21.5661 25.7957 21.25 25.0001 21.25Z" fill="#EAB612"/>
</g>
<defs>
<clipPath id="clip0_16_220">
<rect width="24" height="24" fill="white" transform="translate(13 12.25)"/>
</clipPath>
</defs>
</svg>
