<svg width="121" height="120" viewBox="0 0 121 120" fill="none" xmlns="http://www.w3.org/2000/svg">
<circle cx="60.5" cy="60" r="60" fill="#0EA57B" fill-opacity="0.08"/>
<g clip-path="url(#clip0_1_893)">
<path d="M69.3333 60.4167C72.4275 60.4167 75.395 61.6459 77.5829 63.8338C79.7708 66.0217 81 68.9892 81 72.0834V74.4167C81 75.6544 80.5083 76.8414 79.6332 77.7165C78.758 78.5917 77.571 79.0834 76.3333 79.0834H43.6667C42.429 79.0834 41.242 78.5917 40.3668 77.7165C39.4917 76.8414 39 75.6544 39 74.4167V72.0834C39 68.9892 40.2292 66.0217 42.4171 63.8338C44.605 61.6459 47.5725 60.4167 50.6667 60.4167H69.3333ZM81.966 48.939C82.3849 48.5161 82.9497 48.2693 83.5446 48.2491C84.1396 48.2289 84.7197 48.4369 85.1664 48.8304C85.613 49.224 85.8923 49.7734 85.9471 50.3661C86.002 50.9589 85.8282 51.5502 85.4613 52.019L85.2653 52.2407L78.6667 58.8394C78.2649 59.2411 77.7303 59.4824 77.1633 59.5181C76.5962 59.5538 76.0356 59.3813 75.5867 59.033L75.3673 58.8394L72.068 55.54C71.6451 55.1211 71.3983 54.5564 71.3781 53.9614C71.3579 53.3665 71.5659 52.7863 71.9594 52.3397C72.353 51.893 72.9024 51.6137 73.4951 51.5589C74.0879 51.504 74.6792 51.6778 75.148 52.0447L75.3673 52.2407L77.017 53.8904L81.966 48.939ZM60 32.4167C63.0942 32.4167 66.0617 33.6459 68.2496 35.8338C70.4375 38.0217 71.6667 40.9892 71.6667 44.0834C71.6667 47.1775 70.4375 50.145 68.2496 52.3329C66.0617 54.5209 63.0942 55.75 60 55.75C56.9058 55.75 53.9383 54.5209 51.7504 52.3329C49.5625 50.145 48.3333 47.1775 48.3333 44.0834C48.3333 40.9892 49.5625 38.0217 51.7504 35.8338C53.9383 33.6459 56.9058 32.4167 60 32.4167Z" fill="#0EA57B"/>
</g>
<defs>
<clipPath id="clip0_1_893">
<rect width="56" height="56" fill="white" transform="translate(32 27.75)"/>
</clipPath>
</defs>
</svg>
