<svg width="49" height="48" viewBox="0 0 49 48" fill="none" xmlns="http://www.w3.org/2000/svg">
<rect x="0.5" width="48" height="48" rx="16" fill="#4686E7" fill-opacity="0.08"/>
<g clip-path="url(#clip0_16_227)">
<path d="M29 14.25C29.7956 14.25 30.5587 14.5661 31.1213 15.1287C31.6839 15.6913 32 16.4544 32 17.25V31.25C32 32.0456 31.6839 32.8087 31.1213 33.3713C30.5587 33.9339 29.7956 34.25 29 34.25H19C18.2044 34.25 17.4413 33.9339 16.8787 33.3713C16.3161 32.8087 16 32.0456 16 31.25V17.25C16 16.4544 16.3161 15.6913 16.8787 15.1287C17.4413 14.5661 18.2044 14.25 19 14.25H29ZM24 23.25C22.9391 23.25 21.9217 23.6714 21.1716 24.4216C20.4214 25.1717 20 26.1891 20 27.25C20 28.3109 20.4214 29.3283 21.1716 30.0784C21.9217 30.8286 22.9391 31.25 24 31.25C25.0609 31.25 26.0783 30.8286 26.8284 30.0784C27.5786 29.3283 28 28.3109 28 27.25C28 26.1891 27.5786 25.1717 26.8284 24.4216C26.0783 23.6714 25.0609 23.25 24 23.25ZM24 25.25C24.5304 25.25 25.0391 25.4607 25.4142 25.8358C25.7893 26.2109 26 26.7196 26 27.25C26 27.7804 25.7893 28.2891 25.4142 28.6642C25.0391 29.0393 24.5304 29.25 24 29.25C23.4696 29.25 22.9609 29.0393 22.5858 28.6642C22.2107 28.2891 22 27.7804 22 27.25C22 26.7196 22.2107 26.2109 22.5858 25.8358C22.9609 25.4607 23.4696 25.25 24 25.25ZM29 16.25H19C18.7551 16.25 18.5187 16.34 18.3356 16.5027C18.1526 16.6655 18.0357 16.8897 18.007 17.133L18 17.25V20.25H30V17.25C30 16.9848 29.8946 16.7304 29.7071 16.5429C29.5196 16.3554 29.2652 16.25 29 16.25ZM28 17.25C28.2549 17.2503 28.5 17.3479 28.6854 17.5228C28.8707 17.6978 28.9822 17.937 28.9972 18.1914C29.0121 18.4458 28.9293 18.6964 28.7657 18.8918C28.6021 19.0873 28.3701 19.2129 28.117 19.243L28 19.25H27C26.7451 19.2497 26.5 19.1521 26.3146 18.9772C26.1293 18.8022 26.0178 18.563 26.0028 18.3086C25.9879 18.0542 26.0707 17.8036 26.2343 17.6082C26.3979 17.4127 26.6299 17.2871 26.883 17.257L27 17.25H28ZM24 17.25C24.2652 17.25 24.5196 17.3554 24.7071 17.5429C24.8946 17.7304 25 17.9848 25 18.25C25 18.5152 24.8946 18.7696 24.7071 18.9571C24.5196 19.1446 24.2652 19.25 24 19.25C23.7348 19.25 23.4804 19.1446 23.2929 18.9571C23.1054 18.7696 23 18.5152 23 18.25C23 17.9848 23.1054 17.7304 23.2929 17.5429C23.4804 17.3554 23.7348 17.25 24 17.25Z" fill="#4686E7"/>
</g>
<defs>
<clipPath id="clip0_16_227">
<rect width="24" height="24" fill="white" transform="translate(12 12.25)"/>
</clipPath>
</defs>
</svg>
